<?xml version="1.0" encoding="utf-8" standalone="no"?>
<!DOCTYPE svg PUBLIC "-//W3C//DTD SVG 1.1//EN"
  "http://www.w3.org/Graphics/SVG/1.1/DTD/svg11.dtd">
<svg xmlns:xlink="http://www.w3.org/1999/xlink" width="460.8pt" height="345.6pt" viewBox="0 0 460.8 345.6" xmlns="http://www.w3.org/2000/svg" version="1.1">
 <metadata>
  <rdf:RDF xmlns:dc="http://purl.org/dc/elements/1.1/" xmlns:cc="http://creativecommons.org/ns#" xmlns:rdf="http://www.w3.org/1999/02/22-rdf-syntax-ns#">
   <cc:Work>
    <dc:type rdf:resource="http://purl.org/dc/dcmitype/StillImage"/>
    <dc:date>2022-12-07T22:45:37.484178</dc:date>
    <dc:format>image/svg+xml</dc:format>
    <dc:creator>
     <cc:Agent>
      <dc:title>Matplotlib v3.6.1, https://matplotlib.org/</dc:title>
     </cc:Agent>
    </dc:creator>
   </cc:Work>
  </rdf:RDF>
 </metadata>
 <defs>
  <style type="text/css">*{stroke-linejoin: round; stroke-linecap: butt}</style>
 </defs>
 <g id="figure_1">
  <g id="patch_1">
   <path d="M 0 345.6 
L 460.8 345.6 
L 460.8 0 
L 0 0 
z
" style="fill: #ffffff"/>
  </g>
  <g id="axes_1">
   <g id="patch_2">
    <path d="M 57.6 307.584 
L 414.72 307.584 
L 414.72 41.472 
L 57.6 41.472 
z
" style="fill: #ffffff"/>
   </g>
   <g id="matplotlib.axis_1">
    <g id="xtick_1">
     <g id="line2d_1">
      <defs>
       <path id="m1acc830300" d="M 0 0 
L 0 3.5 
" style="stroke: #000000; stroke-width: 0.8"/>
      </defs>
      <g>
       <use xlink:href="#m1acc830300" x="73.832727" y="307.584" style="stroke: #000000; stroke-width: 0.8"/>
      </g>
     </g>
     <g id="text_1">
      <!-- 0 -->
      <g transform="translate(70.651477 322.182437) scale(0.1 -0.1)">
       <defs>
        <path id="DejaVuSans-30" d="M 2034 4250 
Q 1547 4250 1301 3770 
Q 1056 3291 1056 2328 
Q 1056 1369 1301 889 
Q 1547 409 2034 409 
Q 2525 409 2770 889 
Q 3016 1369 3016 2328 
Q 3016 3291 2770 3770 
Q 2525 4250 2034 4250 
z
M 2034 4750 
Q 2819 4750 3233 4129 
Q 3647 3509 3647 2328 
Q 3647 1150 3233 529 
Q 2819 -91 2034 -91 
Q 1250 -91 836 529 
Q 422 1150 422 2328 
Q 422 3509 836 4129 
Q 1250 4750 2034 4750 
z
" transform="scale(0.015625)"/>
       </defs>
       <use xlink:href="#DejaVuSans-30"/>
      </g>
     </g>
    </g>
    <g id="xtick_2">
     <g id="line2d_2">
      <g>
       <use xlink:href="#m1acc830300" x="117.12" y="307.584" style="stroke: #000000; stroke-width: 0.8"/>
      </g>
     </g>
     <g id="text_2">
      <!-- 200 -->
      <g transform="translate(107.57625 322.182437) scale(0.1 -0.1)">
       <defs>
        <path id="DejaVuSans-32" d="M 1228 531 
L 3431 531 
L 3431 0 
L 469 0 
L 469 531 
Q 828 903 1448 1529 
Q 2069 2156 2228 2338 
Q 2531 2678 2651 2914 
Q 2772 3150 2772 3378 
Q 2772 3750 2511 3984 
Q 2250 4219 1831 4219 
Q 1534 4219 1204 4116 
Q 875 4013 500 3803 
L 500 4441 
Q 881 4594 1212 4672 
Q 1544 4750 1819 4750 
Q 2544 4750 2975 4387 
Q 3406 4025 3406 3419 
Q 3406 3131 3298 2873 
Q 3191 2616 2906 2266 
Q 2828 2175 2409 1742 
Q 1991 1309 1228 531 
z
" transform="scale(0.015625)"/>
       </defs>
       <use xlink:href="#DejaVuSans-32"/>
       <use xlink:href="#DejaVuSans-30" x="63.623047"/>
       <use xlink:href="#DejaVuSans-30" x="127.246094"/>
      </g>
     </g>
    </g>
    <g id="xtick_3">
     <g id="line2d_3">
      <g>
       <use xlink:href="#m1acc830300" x="160.407273" y="307.584" style="stroke: #000000; stroke-width: 0.8"/>
      </g>
     </g>
     <g id="text_3">
      <!-- 400 -->
      <g transform="translate(150.863523 322.182437) scale(0.1 -0.1)">
       <defs>
        <path id="DejaVuSans-34" d="M 2419 4116 
L 825 1625 
L 2419 1625 
L 2419 4116 
z
M 2253 4666 
L 3047 4666 
L 3047 1625 
L 3713 1625 
L 3713 1100 
L 3047 1100 
L 3047 0 
L 2419 0 
L 2419 1100 
L 313 1100 
L 313 1709 
L 2253 4666 
z
" transform="scale(0.015625)"/>
       </defs>
       <use xlink:href="#DejaVuSans-34"/>
       <use xlink:href="#DejaVuSans-30" x="63.623047"/>
       <use xlink:href="#DejaVuSans-30" x="127.246094"/>
      </g>
     </g>
    </g>
    <g id="xtick_4">
     <g id="line2d_4">
      <g>
       <use xlink:href="#m1acc830300" x="203.694545" y="307.584" style="stroke: #000000; stroke-width: 0.8"/>
      </g>
     </g>
     <g id="text_4">
      <!-- 600 -->
      <g transform="translate(194.150795 322.182437) scale(0.1 -0.1)">
       <defs>
        <path id="DejaVuSans-36" d="M 2113 2584 
Q 1688 2584 1439 2293 
Q 1191 2003 1191 1497 
Q 1191 994 1439 701 
Q 1688 409 2113 409 
Q 2538 409 2786 701 
Q 3034 994 3034 1497 
Q 3034 2003 2786 2293 
Q 2538 2584 2113 2584 
z
M 3366 4563 
L 3366 3988 
Q 3128 4100 2886 4159 
Q 2644 4219 2406 4219 
Q 1781 4219 1451 3797 
Q 1122 3375 1075 2522 
Q 1259 2794 1537 2939 
Q 1816 3084 2150 3084 
Q 2853 3084 3261 2657 
Q 3669 2231 3669 1497 
Q 3669 778 3244 343 
Q 2819 -91 2113 -91 
Q 1303 -91 875 529 
Q 447 1150 447 2328 
Q 447 3434 972 4092 
Q 1497 4750 2381 4750 
Q 2619 4750 2861 4703 
Q 3103 4656 3366 4563 
z
" transform="scale(0.015625)"/>
       </defs>
       <use xlink:href="#DejaVuSans-36"/>
       <use xlink:href="#DejaVuSans-30" x="63.623047"/>
       <use xlink:href="#DejaVuSans-30" x="127.246094"/>
      </g>
     </g>
    </g>
    <g id="xtick_5">
     <g id="line2d_5">
      <g>
       <use xlink:href="#m1acc830300" x="246.981818" y="307.584" style="stroke: #000000; stroke-width: 0.8"/>
      </g>
     </g>
     <g id="text_5">
      <!-- 800 -->
      <g transform="translate(237.438068 322.182437) scale(0.1 -0.1)">
       <defs>
        <path id="DejaVuSans-38" d="M 2034 2216 
Q 1584 2216 1326 1975 
Q 1069 1734 1069 1313 
Q 1069 891 1326 650 
Q 1584 409 2034 409 
Q 2484 409 2743 651 
Q 3003 894 3003 1313 
Q 3003 1734 2745 1975 
Q 2488 2216 2034 2216 
z
M 1403 2484 
Q 997 2584 770 2862 
Q 544 3141 544 3541 
Q 544 4100 942 4425 
Q 1341 4750 2034 4750 
Q 2731 4750 3128 4425 
Q 3525 4100 3525 3541 
Q 3525 3141 3298 2862 
Q 3072 2584 2669 2484 
Q 3125 2378 3379 2068 
Q 3634 1759 3634 1313 
Q 3634 634 3220 271 
Q 2806 -91 2034 -91 
Q 1263 -91 848 271 
Q 434 634 434 1313 
Q 434 1759 690 2068 
Q 947 2378 1403 2484 
z
M 1172 3481 
Q 1172 3119 1398 2916 
Q 1625 2713 2034 2713 
Q 2441 2713 2670 2916 
Q 2900 3119 2900 3481 
Q 2900 3844 2670 4047 
Q 2441 4250 2034 4250 
Q 1625 4250 1398 4047 
Q 1172 3844 1172 3481 
z
" transform="scale(0.015625)"/>
       </defs>
       <use xlink:href="#DejaVuSans-38"/>
       <use xlink:href="#DejaVuSans-30" x="63.623047"/>
       <use xlink:href="#DejaVuSans-30" x="127.246094"/>
      </g>
     </g>
    </g>
    <g id="xtick_6">
     <g id="line2d_6">
      <g>
       <use xlink:href="#m1acc830300" x="290.269091" y="307.584" style="stroke: #000000; stroke-width: 0.8"/>
      </g>
     </g>
     <g id="text_6">
      <!-- 1000 -->
      <g transform="translate(277.544091 322.182437) scale(0.1 -0.1)">
       <defs>
        <path id="DejaVuSans-31" d="M 794 531 
L 1825 531 
L 1825 4091 
L 703 3866 
L 703 4441 
L 1819 4666 
L 2450 4666 
L 2450 531 
L 3481 531 
L 3481 0 
L 794 0 
L 794 531 
z
" transform="scale(0.015625)"/>
       </defs>
       <use xlink:href="#DejaVuSans-31"/>
       <use xlink:href="#DejaVuSans-30" x="63.623047"/>
       <use xlink:href="#DejaVuSans-30" x="127.246094"/>
       <use xlink:href="#DejaVuSans-30" x="190.869141"/>
      </g>
     </g>
    </g>
    <g id="xtick_7">
     <g id="line2d_7">
      <g>
       <use xlink:href="#m1acc830300" x="333.556364" y="307.584" style="stroke: #000000; stroke-width: 0.8"/>
      </g>
     </g>
     <g id="text_7">
      <!-- 1200 -->
      <g transform="translate(320.831364 322.182437) scale(0.1 -0.1)">
       <use xlink:href="#DejaVuSans-31"/>
       <use xlink:href="#DejaVuSans-32" x="63.623047"/>
       <use xlink:href="#DejaVuSans-30" x="127.246094"/>
       <use xlink:href="#DejaVuSans-30" x="190.869141"/>
      </g>
     </g>
    </g>
    <g id="xtick_8">
     <g id="line2d_8">
      <g>
       <use xlink:href="#m1acc830300" x="376.843636" y="307.584" style="stroke: #000000; stroke-width: 0.8"/>
      </g>
     </g>
     <g id="text_8">
      <!-- 1400 -->
      <g transform="translate(364.118636 322.182437) scale(0.1 -0.1)">
       <use xlink:href="#DejaVuSans-31"/>
       <use xlink:href="#DejaVuSans-34" x="63.623047"/>
       <use xlink:href="#DejaVuSans-30" x="127.246094"/>
       <use xlink:href="#DejaVuSans-30" x="190.869141"/>
      </g>
     </g>
    </g>
    <g id="text_9">
     <!-- t -->
     <g transform="translate(234.199844 335.860562) scale(0.1 -0.1)">
      <defs>
       <path id="DejaVuSans-74" d="M 1172 4494 
L 1172 3500 
L 2356 3500 
L 2356 3053 
L 1172 3053 
L 1172 1153 
Q 1172 725 1289 603 
Q 1406 481 1766 481 
L 2356 481 
L 2356 0 
L 1766 0 
Q 1100 0 847 248 
Q 594 497 594 1153 
L 594 3053 
L 172 3053 
L 172 3500 
L 594 3500 
L 594 4494 
L 1172 4494 
z
" transform="scale(0.015625)"/>
      </defs>
      <use xlink:href="#DejaVuSans-74"/>
     </g>
    </g>
   </g>
   <g id="matplotlib.axis_2">
    <g id="ytick_1">
     <g id="line2d_9">
      <defs>
       <path id="m3db39ba653" d="M 0 0 
L -3.5 0 
" style="stroke: #000000; stroke-width: 0.8"/>
      </defs>
      <g>
       <use xlink:href="#m3db39ba653" x="57.6" y="303.088162" style="stroke: #000000; stroke-width: 0.8"/>
      </g>
     </g>
     <g id="text_10">
      <!-- 0 -->
      <g transform="translate(44.2375 306.88738) scale(0.1 -0.1)">
       <use xlink:href="#DejaVuSans-30"/>
      </g>
     </g>
    </g>
    <g id="ytick_2">
     <g id="line2d_10">
      <g>
       <use xlink:href="#m3db39ba653" x="57.6" y="262.433508" style="stroke: #000000; stroke-width: 0.8"/>
      </g>
     </g>
     <g id="text_11">
      <!-- 100 -->
      <g transform="translate(31.5125 266.232727) scale(0.1 -0.1)">
       <use xlink:href="#DejaVuSans-31"/>
       <use xlink:href="#DejaVuSans-30" x="63.623047"/>
       <use xlink:href="#DejaVuSans-30" x="127.246094"/>
      </g>
     </g>
    </g>
    <g id="ytick_3">
     <g id="line2d_11">
      <g>
       <use xlink:href="#m3db39ba653" x="57.6" y="221.778854" style="stroke: #000000; stroke-width: 0.8"/>
      </g>
     </g>
     <g id="text_12">
      <!-- 200 -->
      <g transform="translate(31.5125 225.578073) scale(0.1 -0.1)">
       <use xlink:href="#DejaVuSans-32"/>
       <use xlink:href="#DejaVuSans-30" x="63.623047"/>
       <use xlink:href="#DejaVuSans-30" x="127.246094"/>
      </g>
     </g>
    </g>
    <g id="ytick_4">
     <g id="line2d_12">
      <g>
       <use xlink:href="#m3db39ba653" x="57.6" y="181.1242" style="stroke: #000000; stroke-width: 0.8"/>
      </g>
     </g>
     <g id="text_13">
      <!-- 300 -->
      <g transform="translate(31.5125 184.923419) scale(0.1 -0.1)">
       <defs>
        <path id="DejaVuSans-33" d="M 2597 2516 
Q 3050 2419 3304 2112 
Q 3559 1806 3559 1356 
Q 3559 666 3084 287 
Q 2609 -91 1734 -91 
Q 1441 -91 1130 -33 
Q 819 25 488 141 
L 488 750 
Q 750 597 1062 519 
Q 1375 441 1716 441 
Q 2309 441 2620 675 
Q 2931 909 2931 1356 
Q 2931 1769 2642 2001 
Q 2353 2234 1838 2234 
L 1294 2234 
L 1294 2753 
L 1863 2753 
Q 2328 2753 2575 2939 
Q 2822 3125 2822 3475 
Q 2822 3834 2567 4026 
Q 2313 4219 1838 4219 
Q 1578 4219 1281 4162 
Q 984 4106 628 3988 
L 628 4550 
Q 988 4650 1302 4700 
Q 1616 4750 1894 4750 
Q 2613 4750 3031 4423 
Q 3450 4097 3450 3541 
Q 3450 3153 3228 2886 
Q 3006 2619 2597 2516 
z
" transform="scale(0.015625)"/>
       </defs>
       <use xlink:href="#DejaVuSans-33"/>
       <use xlink:href="#DejaVuSans-30" x="63.623047"/>
       <use xlink:href="#DejaVuSans-30" x="127.246094"/>
      </g>
     </g>
    </g>
    <g id="ytick_5">
     <g id="line2d_13">
      <g>
       <use xlink:href="#m3db39ba653" x="57.6" y="140.469546" style="stroke: #000000; stroke-width: 0.8"/>
      </g>
     </g>
     <g id="text_14">
      <!-- 400 -->
      <g transform="translate(31.5125 144.268765) scale(0.1 -0.1)">
       <use xlink:href="#DejaVuSans-34"/>
       <use xlink:href="#DejaVuSans-30" x="63.623047"/>
       <use xlink:href="#DejaVuSans-30" x="127.246094"/>
      </g>
     </g>
    </g>
    <g id="ytick_6">
     <g id="line2d_14">
      <g>
       <use xlink:href="#m3db39ba653" x="57.6" y="99.814892" style="stroke: #000000; stroke-width: 0.8"/>
      </g>
     </g>
     <g id="text_15">
      <!-- 500 -->
      <g transform="translate(31.5125 103.614111) scale(0.1 -0.1)">
       <defs>
        <path id="DejaVuSans-35" d="M 691 4666 
L 3169 4666 
L 3169 4134 
L 1269 4134 
L 1269 2991 
Q 1406 3038 1543 3061 
Q 1681 3084 1819 3084 
Q 2600 3084 3056 2656 
Q 3513 2228 3513 1497 
Q 3513 744 3044 326 
Q 2575 -91 1722 -91 
Q 1428 -91 1123 -41 
Q 819 9 494 109 
L 494 744 
Q 775 591 1075 516 
Q 1375 441 1709 441 
Q 2250 441 2565 725 
Q 2881 1009 2881 1497 
Q 2881 1984 2565 2268 
Q 2250 2553 1709 2553 
Q 1456 2553 1204 2497 
Q 953 2441 691 2322 
L 691 4666 
z
" transform="scale(0.015625)"/>
       </defs>
       <use xlink:href="#DejaVuSans-35"/>
       <use xlink:href="#DejaVuSans-30" x="63.623047"/>
       <use xlink:href="#DejaVuSans-30" x="127.246094"/>
      </g>
     </g>
    </g>
    <g id="ytick_7">
     <g id="line2d_15">
      <g>
       <use xlink:href="#m3db39ba653" x="57.6" y="59.160238" style="stroke: #000000; stroke-width: 0.8"/>
      </g>
     </g>
     <g id="text_16">
      <!-- 600 -->
      <g transform="translate(31.5125 62.959457) scale(0.1 -0.1)">
       <use xlink:href="#DejaVuSans-36"/>
       <use xlink:href="#DejaVuSans-30" x="63.623047"/>
       <use xlink:href="#DejaVuSans-30" x="127.246094"/>
      </g>
     </g>
    </g>
    <g id="text_17">
     <!-- T -->
     <g transform="translate(25.432812 177.581906) rotate(-90) scale(0.1 -0.1)">
      <defs>
       <path id="DejaVuSans-54" d="M -19 4666 
L 3928 4666 
L 3928 4134 
L 2272 4134 
L 2272 0 
L 1638 0 
L 1638 4134 
L -19 4134 
L -19 4666 
z
" transform="scale(0.015625)"/>
      </defs>
      <use xlink:href="#DejaVuSans-54"/>
     </g>
    </g>
   </g>
   <g id="line2d_16">
    <path d="M 73.832727 295.290906 
L 79.892945 282.15046 
L 85.736727 270.006056 
L 91.364073 258.812966 
L 96.774982 248.526253 
L 102.185891 238.717001 
L 107.380364 229.758241 
L 112.3584 221.600357 
L 117.336436 213.865276 
L 122.098036 206.864082 
L 126.859636 200.251447 
L 131.621236 194.02504 
L 136.1664 188.437835 
L 140.711564 183.192731 
L 145.256727 178.282298 
L 149.801891 173.697535 
L 154.347055 169.428027 
L 158.892218 165.462137 
L 163.437382 161.787218 
L 167.982545 158.389821 
L 172.744145 155.113017 
L 177.505745 152.108842 
L 182.267345 149.360539 
L 187.245382 146.742738 
L 192.439855 144.269396 
L 197.634327 142.039246 
L 203.045236 139.9531 
L 208.672582 138.017002 
L 214.7328 136.172249 
L 221.009455 134.496535 
L 227.718982 132.939181 
L 234.861382 131.513911 
L 242.436655 130.228904 
L 250.661236 129.059054 
L 259.751564 127.994879 
L 269.707636 127.055825 
L 280.962327 126.222648 
L 293.732073 125.505363 
L 308.666182 124.896091 
L 326.6304 124.395363 
L 348.923345 124.005754 
L 378.791564 123.720097 
L 398.487273 123.616106 
L 398.487273 123.616106 
" clip-path="url(#pe8fe63526d)" style="fill: none; stroke: #1f77b4; stroke-width: 1.5; stroke-linecap: square"/>
   </g>
   <g id="line2d_17">
    <path d="M 73.832727 295.488 
L 82.273745 284.665746 
L 90.498327 274.479093 
L 98.506473 264.907331 
L 106.298182 255.929753 
L 114.089891 247.289912 
L 121.665164 239.220003 
L 129.024 231.697271 
L 136.382836 224.490732 
L 143.525236 217.801518 
L 150.667636 211.414974 
L 157.810036 205.331776 
L 164.736 199.722081 
L 171.661964 194.395401 
L 178.587927 189.34888 
L 185.513891 184.578506 
L 192.439855 180.07916 
L 199.365818 175.844678 
L 206.291782 171.867945 
L 213.217745 168.140995 
L 220.360145 164.549978 
L 227.502545 161.205126 
L 234.861382 158.005011 
L 242.436655 154.958917 
L 250.011927 152.151065 
L 257.803636 149.497041 
L 265.811782 147.00104 
L 274.2528 144.606926 
L 282.910255 142.38502 
L 292.000582 140.285891 
L 301.523782 138.32114 
L 311.479855 136.498984 
L 321.8688 134.824322 
L 332.907055 133.270489 
L 344.811055 131.823702 
L 357.5808 130.500914 
L 371.432727 129.295448 
L 386.583273 128.206856 
L 398.487273 127.493187 
L 398.487273 127.493187 
" clip-path="url(#pe8fe63526d)" style="fill: none; stroke: #ff7f0e; stroke-width: 1.5; stroke-linecap: square"/>
   </g>
   <g id="line2d_18">
    <path d="M 73.832727 295.290906 
L 82.273745 276.869229 
L 90.281891 259.912039 
L 98.0736 243.935128 
L 105.432436 229.354511 
L 112.3584 216.115947 
L 119.067927 203.768919 
L 125.344582 192.669194 
L 131.4048 182.386465 
L 137.248582 172.891871 
L 143.092364 163.824542 
L 148.719709 155.507428 
L 154.130618 147.900755 
L 159.541527 140.681329 
L 164.736 134.116675 
L 169.930473 127.909925 
L 175.124945 122.058305 
L 180.102982 116.779283 
L 185.081018 111.816045 
L 190.059055 107.161152 
L 195.037091 102.805826 
L 200.015127 98.740125 
L 204.993164 94.953132 
L 210.187636 91.285974 
L 215.382109 87.895569 
L 220.576582 84.76747 
L 225.987491 81.772095 
L 231.3984 79.028664 
L 237.025745 76.42493 
L 242.869527 73.970865 
L 248.929745 71.673743 
L 255.2064 69.538161 
L 261.699491 67.566138 
L 268.409018 65.757278 
L 275.551418 64.060801 
L 283.126691 62.490711 
L 291.134836 61.05629 
L 299.792291 59.731776 
L 309.099055 58.532447 
L 319.271564 57.445839 
L 330.526255 56.469374 
L 343.079564 55.606303 
L 357.364364 54.85184 
L 373.813527 54.210428 
L 393.509236 53.673451 
L 398.487273 53.568 
L 398.487273 53.568 
" clip-path="url(#pe8fe63526d)" style="fill: none; stroke: #2ca02c; stroke-width: 1.5; stroke-linecap: square"/>
   </g>
   <g id="line2d_19">
    <path d="M 73.832727 295.38679 
L 80.758691 283.349244 
L 87.468218 272.130152 
L 93.961309 261.697226 
L 100.237964 252.018108 
L 106.514618 242.747026 
L 112.574836 234.190412 
L 118.418618 226.312646 
L 124.2624 218.805764 
L 129.889745 211.930111 
L 135.517091 205.402032 
L 141.144436 199.220911 
L 146.555345 193.602574 
L 151.966255 188.299302 
L 157.377164 183.306062 
L 162.788073 178.616425 
L 168.198982 174.222669 
L 173.609891 170.1159 
L 179.0208 166.286203 
L 184.431709 162.722803 
L 190.059055 159.287019 
L 195.6864 156.113357 
L 201.530182 153.080165 
L 207.373964 150.298838 
L 213.434182 147.663575 
L 219.710836 145.183089 
L 226.203927 142.863541 
L 232.913455 140.708569 
L 239.839418 138.719385 
L 247.198255 136.843003 
L 254.773527 135.140656 
L 262.781673 133.566109 
L 271.439127 132.093177 
L 280.745891 130.74091 
L 290.701964 129.521721 
L 301.523782 128.421708 
L 313.427782 127.436406 
L 326.846836 126.554427 
L 341.997382 125.788071 
L 359.528727 125.131857 
L 380.306618 124.586165 
L 398.487273 124.254723 
L 398.487273 124.254723 
" clip-path="url(#pe8fe63526d)" style="fill: none; stroke: #d62728; stroke-width: 1.5; stroke-linecap: square"/>
   </g>
   <g id="line2d_20">
    <path d="M 73.832727 295.099139 
L 79.676509 277.349506 
L 85.303855 260.960304 
L 90.714764 245.888666 
L 95.909236 232.089313 
L 100.887273 219.512036 
L 105.648873 208.100514 
L 110.194036 197.79232 
L 114.522764 188.519842 
L 118.635055 180.211796 
L 122.747345 172.395961 
L 126.6432 165.445861 
L 130.539055 158.934898 
L 134.434909 152.857022 
L 138.330764 147.203228 
L 142.010182 142.2424 
L 145.6896 137.637562 
L 149.369018 133.375226 
L 153.048436 129.440561 
L 156.727855 125.817696 
L 160.407273 122.490019 
L 164.303127 119.269368 
L 168.198982 116.340031 
L 172.094836 113.681586 
L 176.207127 111.147153 
L 180.319418 108.86924 
L 184.648145 106.724374 
L 189.193309 104.72528 
L 193.954909 102.880677 
L 198.932945 101.195379 
L 204.127418 99.670546 
L 209.754764 98.253663 
L 215.814982 96.963196 
L 222.308073 95.810361 
L 229.450473 94.771191 
L 237.458618 93.838857 
L 246.332509 93.034371 
L 256.505018 92.339924 
L 268.409018 91.755799 
L 282.910255 91.276828 
L 301.090909 90.90908 
L 325.764655 90.645971 
L 363.857455 90.484603 
L 398.487273 90.436615 
L 398.487273 90.436615 
" clip-path="url(#pe8fe63526d)" style="fill: none; stroke: #9467bd; stroke-width: 1.5; stroke-linecap: square"/>
   </g>
   <g id="patch_3">
    <path d="M 57.6 307.584 
L 57.6 41.472 
" style="fill: none; stroke: #000000; stroke-width: 0.8; stroke-linejoin: miter; stroke-linecap: square"/>
   </g>
   <g id="patch_4">
    <path d="M 414.72 307.584 
L 414.72 41.472 
" style="fill: none; stroke: #000000; stroke-width: 0.8; stroke-linejoin: miter; stroke-linecap: square"/>
   </g>
   <g id="patch_5">
    <path d="M 57.6 307.584 
L 414.72 307.584 
" style="fill: none; stroke: #000000; stroke-width: 0.8; stroke-linejoin: miter; stroke-linecap: square"/>
   </g>
   <g id="patch_6">
    <path d="M 57.6 41.472 
L 414.72 41.472 
" style="fill: none; stroke: #000000; stroke-width: 0.8; stroke-linejoin: miter; stroke-linecap: square"/>
   </g>
   <g id="legend_1">
    <g id="patch_7">
     <path d="M 193.746562 302.584 
L 407.72 302.584 
Q 409.72 302.584 409.72 300.584 
L 409.72 228.193375 
Q 409.72 226.193375 407.72 226.193375 
L 193.746562 226.193375 
Q 191.746562 226.193375 191.746562 228.193375 
L 191.746562 300.584 
Q 191.746562 302.584 193.746562 302.584 
z
" style="fill: #ffffff; opacity: 0.8; stroke: #cccccc; stroke-linejoin: miter"/>
    </g>
    <g id="line2d_21">
     <path d="M 195.746562 234.291812 
L 205.746562 234.291812 
L 215.746562 234.291812 
" style="fill: none; stroke: #1f77b4; stroke-width: 1.5; stroke-linecap: square"/>
    </g>
    <g id="text_18">
     <!-- P = 500, m = 0.8, c = 530, S = 0.02 -->
     <g transform="translate(223.746562 237.791812) scale(0.1 -0.1)">
      <defs>
       <path id="DejaVuSans-50" d="M 1259 4147 
L 1259 2394 
L 2053 2394 
Q 2494 2394 2734 2622 
Q 2975 2850 2975 3272 
Q 2975 3691 2734 3919 
Q 2494 4147 2053 4147 
L 1259 4147 
z
M 628 4666 
L 2053 4666 
Q 2838 4666 3239 4311 
Q 3641 3956 3641 3272 
Q 3641 2581 3239 2228 
Q 2838 1875 2053 1875 
L 1259 1875 
L 1259 0 
L 628 0 
L 628 4666 
z
" transform="scale(0.015625)"/>
       <path id="DejaVuSans-20" transform="scale(0.015625)"/>
       <path id="DejaVuSans-3d" d="M 678 2906 
L 4684 2906 
L 4684 2381 
L 678 2381 
L 678 2906 
z
M 678 1631 
L 4684 1631 
L 4684 1100 
L 678 1100 
L 678 1631 
z
" transform="scale(0.015625)"/>
       <path id="DejaVuSans-2c" d="M 750 794 
L 1409 794 
L 1409 256 
L 897 -744 
L 494 -744 
L 750 256 
L 750 794 
z
" transform="scale(0.015625)"/>
       <path id="DejaVuSans-6d" d="M 3328 2828 
Q 3544 3216 3844 3400 
Q 4144 3584 4550 3584 
Q 5097 3584 5394 3201 
Q 5691 2819 5691 2113 
L 5691 0 
L 5113 0 
L 5113 2094 
Q 5113 2597 4934 2840 
Q 4756 3084 4391 3084 
Q 3944 3084 3684 2787 
Q 3425 2491 3425 1978 
L 3425 0 
L 2847 0 
L 2847 2094 
Q 2847 2600 2669 2842 
Q 2491 3084 2119 3084 
Q 1678 3084 1418 2786 
Q 1159 2488 1159 1978 
L 1159 0 
L 581 0 
L 581 3500 
L 1159 3500 
L 1159 2956 
Q 1356 3278 1631 3431 
Q 1906 3584 2284 3584 
Q 2666 3584 2933 3390 
Q 3200 3197 3328 2828 
z
" transform="scale(0.015625)"/>
       <path id="DejaVuSans-2e" d="M 684 794 
L 1344 794 
L 1344 0 
L 684 0 
L 684 794 
z
" transform="scale(0.015625)"/>
       <path id="DejaVuSans-63" d="M 3122 3366 
L 3122 2828 
Q 2878 2963 2633 3030 
Q 2388 3097 2138 3097 
Q 1578 3097 1268 2742 
Q 959 2388 959 1747 
Q 959 1106 1268 751 
Q 1578 397 2138 397 
Q 2388 397 2633 464 
Q 2878 531 3122 666 
L 3122 134 
Q 2881 22 2623 -34 
Q 2366 -91 2075 -91 
Q 1284 -91 818 406 
Q 353 903 353 1747 
Q 353 2603 823 3093 
Q 1294 3584 2113 3584 
Q 2378 3584 2631 3529 
Q 2884 3475 3122 3366 
z
" transform="scale(0.015625)"/>
       <path id="DejaVuSans-53" d="M 3425 4513 
L 3425 3897 
Q 3066 4069 2747 4153 
Q 2428 4238 2131 4238 
Q 1616 4238 1336 4038 
Q 1056 3838 1056 3469 
Q 1056 3159 1242 3001 
Q 1428 2844 1947 2747 
L 2328 2669 
Q 3034 2534 3370 2195 
Q 3706 1856 3706 1288 
Q 3706 609 3251 259 
Q 2797 -91 1919 -91 
Q 1588 -91 1214 -16 
Q 841 59 441 206 
L 441 856 
Q 825 641 1194 531 
Q 1563 422 1919 422 
Q 2459 422 2753 634 
Q 3047 847 3047 1241 
Q 3047 1584 2836 1778 
Q 2625 1972 2144 2069 
L 1759 2144 
Q 1053 2284 737 2584 
Q 422 2884 422 3419 
Q 422 4038 858 4394 
Q 1294 4750 2059 4750 
Q 2388 4750 2728 4690 
Q 3069 4631 3425 4513 
z
" transform="scale(0.015625)"/>
      </defs>
      <use xlink:href="#DejaVuSans-50"/>
      <use xlink:href="#DejaVuSans-20" x="60.302734"/>
      <use xlink:href="#DejaVuSans-3d" x="92.089844"/>
      <use xlink:href="#DejaVuSans-20" x="175.878906"/>
      <use xlink:href="#DejaVuSans-35" x="207.666016"/>
      <use xlink:href="#DejaVuSans-30" x="271.289062"/>
      <use xlink:href="#DejaVuSans-30" x="334.912109"/>
      <use xlink:href="#DejaVuSans-2c" x="398.535156"/>
      <use xlink:href="#DejaVuSans-20" x="430.322266"/>
      <use xlink:href="#DejaVuSans-6d" x="462.109375"/>
      <use xlink:href="#DejaVuSans-20" x="559.521484"/>
      <use xlink:href="#DejaVuSans-3d" x="591.308594"/>
      <use xlink:href="#DejaVuSans-20" x="675.097656"/>
      <use xlink:href="#DejaVuSans-30" x="706.884766"/>
      <use xlink:href="#DejaVuSans-2e" x="770.507812"/>
      <use xlink:href="#DejaVuSans-38" x="802.294922"/>
      <use xlink:href="#DejaVuSans-2c" x="865.917969"/>
      <use xlink:href="#DejaVuSans-20" x="897.705078"/>
      <use xlink:href="#DejaVuSans-63" x="929.492188"/>
      <use xlink:href="#DejaVuSans-20" x="984.472656"/>
      <use xlink:href="#DejaVuSans-3d" x="1016.259766"/>
      <use xlink:href="#DejaVuSans-20" x="1100.048828"/>
      <use xlink:href="#DejaVuSans-35" x="1131.835938"/>
      <use xlink:href="#DejaVuSans-33" x="1195.458984"/>
      <use xlink:href="#DejaVuSans-30" x="1259.082031"/>
      <use xlink:href="#DejaVuSans-2c" x="1322.705078"/>
      <use xlink:href="#DejaVuSans-20" x="1354.492188"/>
      <use xlink:href="#DejaVuSans-53" x="1386.279297"/>
      <use xlink:href="#DejaVuSans-20" x="1449.755859"/>
      <use xlink:href="#DejaVuSans-3d" x="1481.542969"/>
      <use xlink:href="#DejaVuSans-20" x="1565.332031"/>
      <use xlink:href="#DejaVuSans-30" x="1597.119141"/>
      <use xlink:href="#DejaVuSans-2e" x="1660.742188"/>
      <use xlink:href="#DejaVuSans-30" x="1692.529297"/>
      <use xlink:href="#DejaVuSans-32" x="1756.152344"/>
     </g>
    </g>
    <g id="line2d_22">
     <path d="M 195.746562 248.969937 
L 205.746562 248.969937 
L 215.746562 248.969937 
" style="fill: none; stroke: #ff7f0e; stroke-width: 1.5; stroke-linecap: square"/>
    </g>
    <g id="text_19">
     <!-- P = 500, m = 0.8, c = 900, S = 0.02 -->
     <g transform="translate(223.746562 252.469937) scale(0.1 -0.1)">
      <defs>
       <path id="DejaVuSans-39" d="M 703 97 
L 703 672 
Q 941 559 1184 500 
Q 1428 441 1663 441 
Q 2288 441 2617 861 
Q 2947 1281 2994 2138 
Q 2813 1869 2534 1725 
Q 2256 1581 1919 1581 
Q 1219 1581 811 2004 
Q 403 2428 403 3163 
Q 403 3881 828 4315 
Q 1253 4750 1959 4750 
Q 2769 4750 3195 4129 
Q 3622 3509 3622 2328 
Q 3622 1225 3098 567 
Q 2575 -91 1691 -91 
Q 1453 -91 1209 -44 
Q 966 3 703 97 
z
M 1959 2075 
Q 2384 2075 2632 2365 
Q 2881 2656 2881 3163 
Q 2881 3666 2632 3958 
Q 2384 4250 1959 4250 
Q 1534 4250 1286 3958 
Q 1038 3666 1038 3163 
Q 1038 2656 1286 2365 
Q 1534 2075 1959 2075 
z
" transform="scale(0.015625)"/>
      </defs>
      <use xlink:href="#DejaVuSans-50"/>
      <use xlink:href="#DejaVuSans-20" x="60.302734"/>
      <use xlink:href="#DejaVuSans-3d" x="92.089844"/>
      <use xlink:href="#DejaVuSans-20" x="175.878906"/>
      <use xlink:href="#DejaVuSans-35" x="207.666016"/>
      <use xlink:href="#DejaVuSans-30" x="271.289062"/>
      <use xlink:href="#DejaVuSans-30" x="334.912109"/>
      <use xlink:href="#DejaVuSans-2c" x="398.535156"/>
      <use xlink:href="#DejaVuSans-20" x="430.322266"/>
      <use xlink:href="#DejaVuSans-6d" x="462.109375"/>
      <use xlink:href="#DejaVuSans-20" x="559.521484"/>
      <use xlink:href="#DejaVuSans-3d" x="591.308594"/>
      <use xlink:href="#DejaVuSans-20" x="675.097656"/>
      <use xlink:href="#DejaVuSans-30" x="706.884766"/>
      <use xlink:href="#DejaVuSans-2e" x="770.507812"/>
      <use xlink:href="#DejaVuSans-38" x="802.294922"/>
      <use xlink:href="#DejaVuSans-2c" x="865.917969"/>
      <use xlink:href="#DejaVuSans-20" x="897.705078"/>
      <use xlink:href="#DejaVuSans-63" x="929.492188"/>
      <use xlink:href="#DejaVuSans-20" x="984.472656"/>
      <use xlink:href="#DejaVuSans-3d" x="1016.259766"/>
      <use xlink:href="#DejaVuSans-20" x="1100.048828"/>
      <use xlink:href="#DejaVuSans-39" x="1131.835938"/>
      <use xlink:href="#DejaVuSans-30" x="1195.458984"/>
      <use xlink:href="#DejaVuSans-30" x="1259.082031"/>
      <use xlink:href="#DejaVuSans-2c" x="1322.705078"/>
      <use xlink:href="#DejaVuSans-20" x="1354.492188"/>
      <use xlink:href="#DejaVuSans-53" x="1386.279297"/>
      <use xlink:href="#DejaVuSans-20" x="1449.755859"/>
      <use xlink:href="#DejaVuSans-3d" x="1481.542969"/>
      <use xlink:href="#DejaVuSans-20" x="1565.332031"/>
      <use xlink:href="#DejaVuSans-30" x="1597.119141"/>
      <use xlink:href="#DejaVuSans-2e" x="1660.742188"/>
      <use xlink:href="#DejaVuSans-30" x="1692.529297"/>
      <use xlink:href="#DejaVuSans-32" x="1756.152344"/>
     </g>
    </g>
    <g id="line2d_23">
     <path d="M 195.746562 263.648062 
L 205.746562 263.648062 
L 215.746562 263.648062 
" style="fill: none; stroke: #2ca02c; stroke-width: 1.5; stroke-linecap: square"/>
    </g>
    <g id="text_20">
     <!-- P = 500, m = 0.8, c = 530, S = 0.01 -->
     <g transform="translate(223.746562 267.148062) scale(0.1 -0.1)">
      <use xlink:href="#DejaVuSans-50"/>
      <use xlink:href="#DejaVuSans-20" x="60.302734"/>
      <use xlink:href="#DejaVuSans-3d" x="92.089844"/>
      <use xlink:href="#DejaVuSans-20" x="175.878906"/>
      <use xlink:href="#DejaVuSans-35" x="207.666016"/>
      <use xlink:href="#DejaVuSans-30" x="271.289062"/>
      <use xlink:href="#DejaVuSans-30" x="334.912109"/>
      <use xlink:href="#DejaVuSans-2c" x="398.535156"/>
      <use xlink:href="#DejaVuSans-20" x="430.322266"/>
      <use xlink:href="#DejaVuSans-6d" x="462.109375"/>
      <use xlink:href="#DejaVuSans-20" x="559.521484"/>
      <use xlink:href="#DejaVuSans-3d" x="591.308594"/>
      <use xlink:href="#DejaVuSans-20" x="675.097656"/>
      <use xlink:href="#DejaVuSans-30" x="706.884766"/>
      <use xlink:href="#DejaVuSans-2e" x="770.507812"/>
      <use xlink:href="#DejaVuSans-38" x="802.294922"/>
      <use xlink:href="#DejaVuSans-2c" x="865.917969"/>
      <use xlink:href="#DejaVuSans-20" x="897.705078"/>
      <use xlink:href="#DejaVuSans-63" x="929.492188"/>
      <use xlink:href="#DejaVuSans-20" x="984.472656"/>
      <use xlink:href="#DejaVuSans-3d" x="1016.259766"/>
      <use xlink:href="#DejaVuSans-20" x="1100.048828"/>
      <use xlink:href="#DejaVuSans-35" x="1131.835938"/>
      <use xlink:href="#DejaVuSans-33" x="1195.458984"/>
      <use xlink:href="#DejaVuSans-30" x="1259.082031"/>
      <use xlink:href="#DejaVuSans-2c" x="1322.705078"/>
      <use xlink:href="#DejaVuSans-20" x="1354.492188"/>
      <use xlink:href="#DejaVuSans-53" x="1386.279297"/>
      <use xlink:href="#DejaVuSans-20" x="1449.755859"/>
      <use xlink:href="#DejaVuSans-3d" x="1481.542969"/>
      <use xlink:href="#DejaVuSans-20" x="1565.332031"/>
      <use xlink:href="#DejaVuSans-30" x="1597.119141"/>
      <use xlink:href="#DejaVuSans-2e" x="1660.742188"/>
      <use xlink:href="#DejaVuSans-30" x="1692.529297"/>
      <use xlink:href="#DejaVuSans-31" x="1756.152344"/>
     </g>
    </g>
    <g id="line2d_24">
     <path d="M 195.746562 278.326188 
L 205.746562 278.326188 
L 215.746562 278.326188 
" style="fill: none; stroke: #d62728; stroke-width: 1.5; stroke-linecap: square"/>
    </g>
    <g id="text_21">
     <!-- P = 500, m = 1.0, c = 530, S = 0.02 -->
     <g transform="translate(223.746562 281.826188) scale(0.1 -0.1)">
      <use xlink:href="#DejaVuSans-50"/>
      <use xlink:href="#DejaVuSans-20" x="60.302734"/>
      <use xlink:href="#DejaVuSans-3d" x="92.089844"/>
      <use xlink:href="#DejaVuSans-20" x="175.878906"/>
      <use xlink:href="#DejaVuSans-35" x="207.666016"/>
      <use xlink:href="#DejaVuSans-30" x="271.289062"/>
      <use xlink:href="#DejaVuSans-30" x="334.912109"/>
      <use xlink:href="#DejaVuSans-2c" x="398.535156"/>
      <use xlink:href="#DejaVuSans-20" x="430.322266"/>
      <use xlink:href="#DejaVuSans-6d" x="462.109375"/>
      <use xlink:href="#DejaVuSans-20" x="559.521484"/>
      <use xlink:href="#DejaVuSans-3d" x="591.308594"/>
      <use xlink:href="#DejaVuSans-20" x="675.097656"/>
      <use xlink:href="#DejaVuSans-31" x="706.884766"/>
      <use xlink:href="#DejaVuSans-2e" x="770.507812"/>
      <use xlink:href="#DejaVuSans-30" x="802.294922"/>
      <use xlink:href="#DejaVuSans-2c" x="865.917969"/>
      <use xlink:href="#DejaVuSans-20" x="897.705078"/>
      <use xlink:href="#DejaVuSans-63" x="929.492188"/>
      <use xlink:href="#DejaVuSans-20" x="984.472656"/>
      <use xlink:href="#DejaVuSans-3d" x="1016.259766"/>
      <use xlink:href="#DejaVuSans-20" x="1100.048828"/>
      <use xlink:href="#DejaVuSans-35" x="1131.835938"/>
      <use xlink:href="#DejaVuSans-33" x="1195.458984"/>
      <use xlink:href="#DejaVuSans-30" x="1259.082031"/>
      <use xlink:href="#DejaVuSans-2c" x="1322.705078"/>
      <use xlink:href="#DejaVuSans-20" x="1354.492188"/>
      <use xlink:href="#DejaVuSans-53" x="1386.279297"/>
      <use xlink:href="#DejaVuSans-20" x="1449.755859"/>
      <use xlink:href="#DejaVuSans-3d" x="1481.542969"/>
      <use xlink:href="#DejaVuSans-20" x="1565.332031"/>
      <use xlink:href="#DejaVuSans-30" x="1597.119141"/>
      <use xlink:href="#DejaVuSans-2e" x="1660.742188"/>
      <use xlink:href="#DejaVuSans-30" x="1692.529297"/>
      <use xlink:href="#DejaVuSans-32" x="1756.152344"/>
     </g>
    </g>
    <g id="line2d_25">
     <path d="M 195.746562 293.004312 
L 205.746562 293.004312 
L 215.746562 293.004312 
" style="fill: none; stroke: #9467bd; stroke-width: 1.5; stroke-linecap: square"/>
    </g>
    <g id="text_22">
     <!-- P = 700, m = 0.8, c = 530, S = 0.02 -->
     <g transform="translate(223.746562 296.504312) scale(0.1 -0.1)">
      <defs>
       <path id="DejaVuSans-37" d="M 525 4666 
L 3525 4666 
L 3525 4397 
L 1831 0 
L 1172 0 
L 2766 4134 
L 525 4134 
L 525 4666 
z
" transform="scale(0.015625)"/>
      </defs>
      <use xlink:href="#DejaVuSans-50"/>
      <use xlink:href="#DejaVuSans-20" x="60.302734"/>
      <use xlink:href="#DejaVuSans-3d" x="92.089844"/>
      <use xlink:href="#DejaVuSans-20" x="175.878906"/>
      <use xlink:href="#DejaVuSans-37" x="207.666016"/>
      <use xlink:href="#DejaVuSans-30" x="271.289062"/>
      <use xlink:href="#DejaVuSans-30" x="334.912109"/>
      <use xlink:href="#DejaVuSans-2c" x="398.535156"/>
      <use xlink:href="#DejaVuSans-20" x="430.322266"/>
      <use xlink:href="#DejaVuSans-6d" x="462.109375"/>
      <use xlink:href="#DejaVuSans-20" x="559.521484"/>
      <use xlink:href="#DejaVuSans-3d" x="591.308594"/>
      <use xlink:href="#DejaVuSans-20" x="675.097656"/>
      <use xlink:href="#DejaVuSans-30" x="706.884766"/>
      <use xlink:href="#DejaVuSans-2e" x="770.507812"/>
      <use xlink:href="#DejaVuSans-38" x="802.294922"/>
      <use xlink:href="#DejaVuSans-2c" x="865.917969"/>
      <use xlink:href="#DejaVuSans-20" x="897.705078"/>
      <use xlink:href="#DejaVuSans-63" x="929.492188"/>
      <use xlink:href="#DejaVuSans-20" x="984.472656"/>
      <use xlink:href="#DejaVuSans-3d" x="1016.259766"/>
      <use xlink:href="#DejaVuSans-20" x="1100.048828"/>
      <use xlink:href="#DejaVuSans-35" x="1131.835938"/>
      <use xlink:href="#DejaVuSans-33" x="1195.458984"/>
      <use xlink:href="#DejaVuSans-30" x="1259.082031"/>
      <use xlink:href="#DejaVuSans-2c" x="1322.705078"/>
      <use xlink:href="#DejaVuSans-20" x="1354.492188"/>
      <use xlink:href="#DejaVuSans-53" x="1386.279297"/>
      <use xlink:href="#DejaVuSans-20" x="1449.755859"/>
      <use xlink:href="#DejaVuSans-3d" x="1481.542969"/>
      <use xlink:href="#DejaVuSans-20" x="1565.332031"/>
      <use xlink:href="#DejaVuSans-30" x="1597.119141"/>
      <use xlink:href="#DejaVuSans-2e" x="1660.742188"/>
      <use xlink:href="#DejaVuSans-30" x="1692.529297"/>
      <use xlink:href="#DejaVuSans-32" x="1756.152344"/>
     </g>
    </g>
   </g>
  </g>
 </g>
 <defs>
  <clipPath id="pe8fe63526d">
   <rect x="57.6" y="41.472" width="357.12" height="266.112"/>
  </clipPath>
 </defs>
</svg>
